<?xml version="1.0" encoding="UTF-8"?>
<svg xmlns="http://www.w3.org/2000/svg" xmlns:xlink="http://www.w3.org/1999/xlink" width="25px" height="25px" viewBox="0 0 25 25" version="1.1">
<g id="surface1">
<path style=" stroke:none;fill-rule:nonzero;fill:rgb(0%,0%,0%);fill-opacity:1;" d="M 10.132812 0.0703125 C 9.664062 0.214844 9.617188 0.253906 8.667969 1.441406 L 8 2.269531 L 7.5 2.328125 C 6.859375 2.40625 6.410156 2.507812 5.6875 2.738281 C 4.996094 2.960938 3.890625 3.496094 3.355469 3.871094 C 2.242188 4.652344 1.5 5.605469 1.246094 6.59375 C 1.148438 6.960938 1.136719 7.730469 1.21875 8.082031 C 1.3125 8.453125 1.578125 8.976562 1.84375 9.300781 L 2.089844 9.601562 L 1.15625 10.742188 C 0.648438 11.371094 0.1875 11.988281 0.125 12.109375 C -0.0195312 12.421875 -0.0078125 13.027344 0.140625 13.523438 C 0.738281 15.46875 3.179688 18.492188 5.921875 20.671875 C 7.050781 21.570312 8.472656 22.386719 9.296875 22.613281 C 9.785156 22.742188 10.375 22.730469 10.667969 22.582031 C 10.859375 22.484375 21.910156 13.597656 22.28125 13.242188 C 22.585938 12.949219 22.671875 12.738281 22.695312 12.195312 C 22.714844 11.792969 22.695312 11.660156 22.585938 11.28125 C 22.34375 10.433594 21.914062 9.578125 21.175781 8.472656 C 19.800781 6.414062 17.542969 4.039062 15.40625 2.386719 C 13.105469 0.617188 11.140625 -0.25 10.132812 0.0703125 Z M 11.25 1.253906 C 13.050781 1.777344 16.242188 4.257812 18.550781 6.933594 C 20.371094 9.039062 21.582031 11.109375 21.582031 12.117188 C 21.582031 12.441406 21.476562 12.519531 21.085938 12.492188 C 20.085938 12.40625 18.3125 11.375 16.382812 9.765625 C 15.523438 9.054688 13.902344 7.453125 13.183594 6.617188 C 11.453125 4.59375 10.238281 2.519531 10.230469 1.570312 C 10.230469 1.351562 10.25 1.292969 10.351562 1.210938 C 10.449219 1.128906 10.511719 1.117188 10.734375 1.148438 C 10.878906 1.167969 11.109375 1.210938 11.25 1.253906 Z M 9.445312 2.976562 C 10.046875 4.648438 12.207031 7.484375 14.46875 9.574219 C 16.523438 11.480469 18.257812 12.691406 19.769531 13.28125 L 20.230469 13.460938 L 15.214844 17.507812 C 11.503906 20.507812 10.164062 21.5625 10.058594 21.570312 C 9.511719 21.632812 8.03125 20.875 6.789062 19.902344 C 5.6875 19.046875 4.332031 17.75 3.460938 16.722656 C 2.132812 15.15625 1.28125 13.71875 1.148438 12.828125 L 1.113281 12.613281 L 2.054688 11.441406 L 3 10.269531 L 3.4375 10.476562 C 3.992188 10.738281 4.632812 10.945312 5.335938 11.101562 C 6.28125 11.3125 6.65625 11.347656 7.8125 11.34375 C 8.914062 11.335938 9.371094 11.304688 10.171875 11.148438 C 10.511719 11.078125 10.621094 11.074219 10.683594 11.125 C 11.136719 11.453125 11.777344 11.410156 12.164062 11.019531 C 12.375 10.816406 12.457031 10.621094 12.484375 10.296875 C 12.507812 10.054688 12.496094 9.96875 12.378906 9.742188 C 11.96875 8.898438 10.820312 8.882812 10.386719 9.71875 C 10.273438 9.929688 10.214844 9.992188 10.09375 10.019531 C 9.175781 10.230469 7.242188 10.269531 6.175781 10.109375 C 5.828125 10.054688 5.332031 9.953125 5.078125 9.882812 C 4.5625 9.742188 3.757812 9.429688 3.757812 9.367188 C 3.757812 9.289062 9.242188 2.535156 9.277344 2.574219 C 9.296875 2.59375 9.371094 2.777344 9.445312 2.976562 Z M 6.898438 3.625 C 6.6875 3.898438 2.945312 8.539062 2.882812 8.609375 C 2.804688 8.695312 2.789062 8.6875 2.617188 8.429688 C 1.757812 7.128906 2.640625 5.445312 4.742188 4.371094 C 5.367188 4.054688 5.757812 3.898438 6.398438 3.707031 C 6.9375 3.550781 6.957031 3.546875 6.898438 3.625 Z M 6.898438 3.625 "/>
<path style=" stroke:none;fill-rule:nonzero;fill:rgb(0%,0%,0%);fill-opacity:1;" d="M 22.007812 17.089844 C 21.929688 17.113281 21.835938 17.15625 21.792969 17.195312 C 21.558594 17.386719 20.425781 19.253906 19.96875 20.191406 C 19.234375 21.703125 19.160156 22.425781 19.628906 23.414062 C 20.160156 24.527344 21.40625 25.160156 22.648438 24.953125 C 24.015625 24.722656 25.109375 23.351562 24.984375 22.015625 C 24.914062 21.195312 24.125 19.570312 22.925781 17.738281 C 22.726562 17.441406 22.523438 17.171875 22.476562 17.148438 C 22.324219 17.070312 22.148438 17.050781 22.007812 17.089844 Z M 22.523438 19.242188 C 22.976562 19.984375 23.515625 21.015625 23.691406 21.488281 C 23.96875 22.234375 23.851562 22.859375 23.351562 23.355469 C 22.753906 23.9375 21.878906 24.015625 21.195312 23.539062 C 20.546875 23.09375 20.328125 22.386719 20.585938 21.582031 C 20.773438 21.015625 22.09375 18.609375 22.179688 18.691406 C 22.195312 18.710938 22.351562 18.960938 22.523438 19.242188 Z M 22.523438 19.242188 "/>
</g>
</svg>
